<?xml version="1.0" encoding="utf-8"?>
<!-- Generator: Adobe Illustrator 20.1.0, SVG Export Plug-In . SVG Version: 6.00 Build 0)  -->
<svg version="1.1" id="Layer_1" xmlns="http://www.w3.org/2000/svg" xmlns:xlink="http://www.w3.org/1999/xlink" x="0px" y="0px"
	 viewBox="0 0 60 60" style="enable-background:new 0 0 60 60;" xml:space="preserve">
<style type="text/css">
	.st0{fill:#4AAE48;}
	.st1{fill:#EA3939;}
	.st2{fill:#FED14B;}
	.st3{fill:#188FD1;}
</style>
<g>
	<path class="st0" d="M30,45.4c-3,0-5.8-0.8-8.3-2.5c-2.5-1.6-4.4-3.8-5.6-6.3L3.8,15C1.2,19.6,0,24.8,0,30c0,7.5,2.4,14,7.3,19.6
		s11,8.9,18.2,10l8.7-15.1C33.4,44.8,31.9,45.4,30,45.4z"/>
	<path class="st1" d="M20.6,17.9c2.8-2.1,5.9-2.9,9.4-2.9c0.5,0,25.8,0,25.8,0c-2.7-4.5-6.3-8.4-10.8-11C40.4,1.3,35.4,0,30,0
		c-4.7,0-9.1,1-13.1,3c-4.1,2-7.8,4.9-10.6,8.6L15,26.3C15.9,22.9,17.8,20,20.6,17.9z"/>
	<path class="st2" d="M57.7,18.8H40.3c3,3,5,7,5,11.3c0,3.2-0.9,6.1-2.7,8.8L30.4,60c8.2-0.1,15.2-3,21-8.9C57.1,45.2,60,38.2,60,30
		C60,26.2,59.4,22.1,57.7,18.8z"/>
	<circle class="st3" cx="30" cy="30" r="11.3"/>
</g>
</svg>
