<?xml version="1.0" encoding="utf-8"?>
<!-- Generator: Adobe Illustrator 20.1.0, SVG Export Plug-In . SVG Version: 6.00 Build 0)  -->
<svg version="1.1" id="Layer_1" xmlns="http://www.w3.org/2000/svg" xmlns:xlink="http://www.w3.org/1999/xlink" x="0px" y="0px"
	 viewBox="0 0 60 60" style="enable-background:new 0 0 60 60;" xml:space="preserve">
<style type="text/css">
	.st0{fill:#188FD1;}
</style>
<g>
	<path class="st0" d="M21.5,34.5v0.1c0,2,0.5,3.9,1.4,5.7c1.1,1.9,2.5,3.4,4.4,4.5c1.9,1.1,3.9,1.7,6.2,1.7c2.3,0,4.3-0.6,6.2-1.7
		c1.8-1.1,3.3-2.6,4.4-4.5h14.7c-1.9,5.3-5.2,9.7-9.9,13.1c-4.7,3.4-10,5.1-15.8,5.1c-4.4,0-8.5-0.9-12.3-2.8
		C12,59.9,5.8,60.1,2,56.3c-1.3-1.2-2-3.3-2-6.2c0-2.9,0.6-6.1,1.7-9.6c1.1-3.5,3-7.4,5.6-11.6c2.6-4.2,5.7-8.1,9.2-11.5
		c2.1-2.1,3.4-3.5,3.9-3.9c-5.1,2.5-9.7,6.3-13.8,11.5c1.5-6,4.7-10.9,9.6-14.8C21,6.3,26.6,4.3,33,4.3c0.7,0,1.3,0,2,0.1
		c4.6-2.1,8.8-3.2,12.6-3.4c3.8-0.2,6.5,0.4,8,1.8c3.1,3.2,3.4,8.2,0.9,15c2.4,4.2,3.6,8.7,3.6,13.6c0,1.1,0,2.2-0.1,3.1H45.3
		L21.5,34.5L21.5,34.5z M18.9,54.7c-5.5-3.4-9.4-8.1-11.6-14.2c-3.7,7.2-4.2,12.2-1.5,14.9C8.2,57.9,12.5,57.6,18.9,54.7z
		 M44.3,27.4c-0.2-3-1.4-5.5-3.6-7.6c-2.2-2.1-4.8-3.1-7.8-3.1c-3,0-5.6,1-7.8,3.1c-2.2,2.1-3.4,4.6-3.6,7.6H44.3z M43,6.3
		c5.3,2.1,9.5,5.6,12.6,10.3C57.4,11.6,57.4,8,55.3,6C53.1,3.7,49,3.8,43,6.3z"/>
</g>
</svg>
