<?xml version="1.0" encoding="utf-8"?>
<!-- Generator: Adobe Illustrator 20.1.0, SVG Export Plug-In . SVG Version: 6.00 Build 0)  -->
<svg version="1.1" id="Layer_1" xmlns="http://www.w3.org/2000/svg" xmlns:xlink="http://www.w3.org/1999/xlink" x="0px" y="0px"
	 viewBox="0 0 60 60" style="enable-background:new 0 0 60 60;" xml:space="preserve">
<style type="text/css">
	.st0{fill:#2394BC;}
	.st1{fill:#EC8840;}
</style>
<g>
	<path class="st0" d="M30,0.9c15.5,0,28.1,12.6,28.1,28.1c0,15.5-12.6,28.1-28.1,28.1S1.9,44.6,1.9,29.1C1.9,13.5,14.5,0.9,30,0.9z"
		/>
	<path class="st1" d="M34.8,58.6C49.1,56.3,60,44,60,29.1l-0.3,0.3c0.4-2.8,0.4-5.4-0.2-7.6c-0.2,1.6-0.4,2.6-0.7,3
		c0-0.1,0-1.8-0.6-4.2c-0.3-1.7-0.6-3.4-1.2-4.9c0.1,0.7,0.2,1.3,0.2,1.8c-2.2-5.8-7.5-13-20.8-12.9c0,0,4.6,0.5,6.8,3.8
		c0,0-2.2-0.5-3.9,0.3c2.1,0.8,3.8,1.7,5.4,2.6l0.1,0.1c0.4,0.2,0.7,0.5,1.1,0.7c2.8,2,5.4,4.8,5.2,8.4c-0.6-1-1.4-1.6-2.4-1.9
		c1.3,5,1.4,9.1,0.4,12.4c-0.7-2.2-1.4-3.5-1.9-3.9C48.1,33.8,47,38.7,44,42c0.6-2,0.8-3.6,0.7-4.8c-3.5,5.3-7.5,8-11.9,8.2
		c-1.8,0-3.4-0.3-5-0.8c-2.3-0.8-4.4-2.1-6.2-4c2.9,0.2,5.5-0.3,7.9-1.4l3.8-2.5l0,0c0.5-0.2,1-0.2,1.4,0c0.9-0.1,1.3-0.6,0.9-1.5
		c-0.4-0.6-1.1-1.2-2-1.7c-1.9-1-3.9-0.8-6,0.5c-2,1.1-3.9,1.1-5.7-0.1c-1.2-0.8-2.4-2-3.5-3.4l-0.4-0.7c-0.2,1.6,0,3.6,0.7,6.2l0,0
		l0,0c-0.7-2.5-1-4.6-0.7-6.2v0c0.1-1.4,0.6-2.2,1.7-2.3l-0.5,0l0.5,0c1.2,0.1,2.7,0.4,4.3,0.9c0.3-1.6-0.1-3.2-1.1-4.8v0
		c1.5-1.4,2.9-2.4,4-3.1c0.5-0.3,0.8-0.7,0.9-1.2l0,0l0,0l0.1-0.1c0.3-0.4,0.2-0.8-0.3-1.1c-1.1,0.1-2.1,0-3.2-0.2l0,0
		c-0.4-0.1-1-0.5-1.7-1.2l-1.7-1.7l-0.5-0.4v0.1h0l0-0.1l-0.1-0.1l0.1-0.1c0.2-1.3,0.6-2.4,1.2-3.4l0.1-0.1c0.6-0.9,1.7-2,3.2-3
		c-3,0.4-5.6,1.7-8,4c-2-0.7-4.3-0.6-7,0.5l-0.3,0.2l0,0l0.4-0.3l0,0c-1.7-0.8-2.8-3-3.4-6.7c-2.2,2.1-3.2,6-3.1,11.5l-0.6,0.9
		L2.6,18l0,0l0,0l0,0.1c-0.3,0.5-0.8,1.3-1.3,2.3c-0.8,1.5-1.1,2.7-1.2,3.8l0,0l0,0l0,0.3l0-0.1c0,0.2,0,0.5,0.1,0.7l1.8-1.4
		c-0.6,1.6-1.1,3.3-1.3,5.1l-0.1,0.8L0,29.1c0,6.4,2,12.4,5.5,17.3l0.1,0.2l0.2,0.2c2.5,3.4,5.6,6.3,9.3,8.4
		c2.6,1.6,5.5,2.6,8.5,3.3l0.6,0.1c0.6,0.1,1.3,0.2,1.9,0.3c0.5,0.1,0.9,0.1,1.4,0.2l0.6,0.1l0.9,0l1,0l0.8,0l1.3-0.1
		c0.8-0.1,1.5-0.1,2.3-0.2C34.4,58.7,34.8,58.6,34.8,58.6z M17.2,27.2L17.2,27.2z M53.8,22.1l0,0.2L53.8,22.1L53.8,22.1z"/>
</g>
</svg>
