<?xml version="1.0" encoding="utf-8"?>
<!-- Generator: Adobe Illustrator 20.1.0, SVG Export Plug-In . SVG Version: 6.00 Build 0)  -->
<svg version="1.1" id="Layer_1" xmlns="http://www.w3.org/2000/svg" xmlns:xlink="http://www.w3.org/1999/xlink" x="0px" y="0px"
	 viewBox="0 0 60 60" style="enable-background:new 0 0 60 60;" xml:space="preserve">
<style type="text/css">
	.st0{fill:#E3411F;}
	.st1{fill:#FFFFFF;}
</style>
<circle class="st0" cx="30" cy="30" r="30"/>
<g>
	<path class="st1" d="M31.1,32.3c-0.9-0.6-2.5-2.1-2.5-2.9c0-1,0.3-1.5,1.8-2.8c1.5-1.3,2.6-2.9,2.6-4.9c0-2.4-1-4.6-3-5.5h3
		l2.1-1.5h-9.4c-4.3,0-8.3,3.2-8.3,6.9c0,3.8,2.9,6.9,7.1,6.9c0.3,0,0.6,0,0.9,0c-0.3,0.5-0.5,1.1-0.5,1.8c0,1,0.6,1.9,1.3,2.6
		c-0.5,0-1.1,0-1.6,0c-5.3,0-9.3,3.4-9.3,6.8c0,3.4,4.4,5.5,9.6,5.5c6,0,9.3-3.4,9.3-6.8C34.3,35.8,33.6,34.1,31.1,32.3z M25.9,27.7
		c-2.4-0.1-4.8-2.8-5.1-5.9c-0.4-3.3,1.3-5.6,3.6-5.5c2.4,0.1,4.7,2.6,5.1,5.9C30.1,25.2,28.4,27.7,25.9,27.7z M25.1,43.8
		c-3.6,0-6.3-2.3-6.3-5s3.3-5,6.9-4.9c0.9,0,1.6,0.1,2.4,0.4c2,1.4,3.4,2.1,3.8,3.8c0.1,0.4,0.1,0.6,0.1,1
		C31.9,41.6,30.1,43.8,25.1,43.8z"/>
	<polygon class="st1" points="41.1,27.9 41.1,24.3 38.1,24.3 38.1,27.9 34.4,27.9 34.4,30.8 38.1,30.8 38.1,34.6 41.1,34.6 
		41.1,30.8 44.7,30.8 44.7,27.9 	"/>
</g>
</svg>
