<?xml version="1.0" encoding="utf-8"?>
<!-- Generator: Adobe Illustrator 20.1.0, SVG Export Plug-In . SVG Version: 6.00 Build 0)  -->
<svg version="1.1" id="Layer_1" xmlns="http://www.w3.org/2000/svg" xmlns:xlink="http://www.w3.org/1999/xlink" x="0px" y="0px"
	 viewBox="0 0 60 60" style="enable-background:new 0 0 60 60;" xml:space="preserve">
<style type="text/css">
	.st0{fill:#F99400;}
	.st1{fill:#FFFFFF;}
</style>
<g>
	<circle class="st0" cx="30" cy="30" r="30"/>
	<g>
		<path class="st1" d="M27.1,36.2c-1.1-0.3-2.1-0.6-3-1.1c-0.3-0.2-0.7-0.4-1-0.6c-1-0.6-1.3-1.9-0.7-2.8c0.6-1,1.8-1.3,2.8-0.7
			c1,0.6,2,1,3.1,1.2c2.2,0.4,4.3,0,6.2-1.1c0.4-0.2,0.8-0.4,1.3-0.4c0.9,0,1.7,0.6,2,1.5c0.3,0.9-0.1,1.8-0.8,2.3
			c-1.2,0.8-2.5,1.3-3.9,1.7c-0.1,0-0.1,0-0.2,0.1c0.1,0.1,0.1,0.1,0.1,0.2c1.2,1.2,2.5,2.5,3.7,3.7c0.7,0.7,0.9,1.7,0.4,2.5
			c-0.7,1.2-2.3,1.4-3.3,0.4c-1.2-1.2-2.5-2.5-3.7-3.7c0,0-0.1-0.1-0.2-0.2c0,0.1-0.1,0.1-0.1,0.2c-1.2,1.2-2.5,2.5-3.7,3.7
			c-0.8,0.8-2.1,0.8-3,0c-0.8-0.8-0.8-2,0-2.8c0.1-0.1,0.2-0.2,0.3-0.3c1.2-1.2,2.4-2.4,3.5-3.5C27,36.3,27.1,36.2,27.1,36.2z"/>
		<path class="st1" d="M30,16.4c3.9,0,7,3.2,7,7c0,3.9-3.1,7-7,7c-3.9,0-7-3.2-7-7C23,19.5,26.1,16.4,30,16.4z M32.9,23.4
			c0-1.6-1.3-2.9-2.9-2.9c-1.6,0-2.9,1.3-2.9,2.9c0,1.6,1.3,2.9,2.9,2.9C31.6,26.3,32.9,25,32.9,23.4z"/>
	</g>
</g>
</svg>
