<?xml version="1.0" encoding="utf-8"?>
<!-- Generator: Adobe Illustrator 20.1.0, SVG Export Plug-In . SVG Version: 6.00 Build 0)  -->
<svg version="1.1" id="Layer_1" xmlns="http://www.w3.org/2000/svg" xmlns:xlink="http://www.w3.org/1999/xlink" x="0px" y="0px"
	 viewBox="0 0 60 60" style="enable-background:new 0 0 60 60;" xml:space="preserve">
<style type="text/css">
	.st0{fill:#E21514;}
	.st1{fill:#FFFFFF;}
</style>
<g id="g6434" transform="translate(136.1786,108.25001)">
	<path id="path5032" class="st0" d="M-76.2-78.3c0,16.6-13.4,30-30,30s-30-13.4-30-30s13.4-30,30-30S-76.2-94.8-76.2-78.3
		L-76.2-78.3z"/>
	<g id="g4321" transform="matrix(1.5000258,0,0,1.5000258,-41.751289,-24.803125)">
		<path id="path4323" class="st1" d="M-43-49.1c-4,0-9.8,1.6-12,9.1c-0.4,1.5-0.6,3-0.6,4.4c0,1.4,0.1,2.9,0.6,4.4
			c2.2,7.5,8.1,9.1,12,9.1c3.9,0,9.8-1.6,12-9.1c0.4-1.5,0.6-3,0.6-4.4c0-1.4-0.1-2.9-0.6-4.4C-33.2-47.6-39-49.1-43-49.1z
			 M-42.9-47c0.5,0,1.9,0.1,2.8,0.8c1.1,0.9,2.6,2.9,2.6,10.6c0,7.7-1.5,9.7-2.6,10.6c-0.8,0.7-2.2,0.8-2.8,0.8
			c-0.5,0-1.9-0.1-2.8-0.8c-1.1-0.9-2.6-2.9-2.6-10.6c0-7.7,1.5-9.7,2.6-10.6C-44.9-46.9-43.5-47-42.9-47L-42.9-47z"/>
	</g>
</g>
</svg>
