<?xml version="1.0" encoding="utf-8"?>
<!-- Generator: Adobe Illustrator 20.1.0, SVG Export Plug-In . SVG Version: 6.00 Build 0)  -->
<svg version="1.1" id="Layer_1" xmlns="http://www.w3.org/2000/svg" xmlns:xlink="http://www.w3.org/1999/xlink" x="0px" y="0px"
	 viewBox="0 0 60 60" style="enable-background:new 0 0 60 60;" xml:space="preserve">
<style type="text/css">
	.st0{fill:#E6E6E6;}
	.st1{fill:#188FD1;}
	.st2{opacity:0.2;enable-background:new    ;}
	.st3{fill:#EA3939;}
	.st4{fill:#FFFFFF;}
</style>
<g>
	<path class="st0" d="M49.9,12C44.4,6.5,37.7,3.8,30,3.8c-1.4,0-2.8,0.1-4.1,0.4c-0.1-0.1-0.1-0.2-0.1-0.2c0.9-0.6,1.2-1.3,0.9-2.1
		C26.5,0.6,25.6,0,24,0c-0.3,0-0.6,0-0.9,0.1c-0.9,0.2-1.5,0.5-2.1,1.1c-0.5,0.6-0.7,1.2-0.5,1.8c0.2,0.9,0.7,1.4,1.8,1.6v0.1
		C16.3,6.5,11.4,9.9,7.6,14.9c-3.8,5-5.7,10.7-5.7,17c0,7.7,2.8,14.4,8.3,19.9S22.3,60,30,60s14.4-2.8,19.9-8.3s8.3-12.1,8.3-19.9
		S55.4,17.5,49.9,12z M45.1,47c-2.6,2.6-5.6,4.4-9.1,5.4l-2.5-4.1L32.8,53c-0.9,0.2-1.9,0.2-2.8,0.2c-5.9,0-10.9-2.1-15.1-6.2
		c-2.6-2.6-4.4-5.6-5.4-9.1l4.1-2.5l-4.7-0.7c-0.2-0.9-0.2-1.9-0.2-2.8c0-5.9,2.1-10.9,6.2-15.1c2.6-2.6,5.6-4.4,9.1-5.4l2.5,4.1
		l0.7-4.7c0.9-0.2,1.9-0.2,2.8-0.2c5.9,0,10.9,2.1,15.1,6.2c2.6,2.6,4.4,5.6,5.4,9.1l-4.1,2.5l4.7,0.7c0.2,0.9,0.2,1.9,0.2,2.8
		C51.3,37.7,49.3,42.8,45.1,47z"/>
	<path d="M25.3,28.8c-0.9,1.3-1.1,2.7-0.8,4.2c0.1,0.3,0.2,0.7,0.4,1.1l3.2-4.2l4.2-3.2c-0.5-0.2-1-0.4-1.5-0.5c-0.2,0-0.5,0-0.7,0
		c-0.4,0-0.8,0-1.2,0.1C27.3,26.7,26.2,27.5,25.3,28.8z"/>
	<path d="M35.2,34.1c0.5-1.1,0.6-2.2,0.4-3.4c-0.1-0.3-0.2-0.7-0.4-1.1L32,33.9L27.8,37c0.5,0.2,1,0.4,1.5,0.5c0.2,0,0.5,0,0.7,0
		c0.4,0,0.8,0,1.2-0.1c0.6-0.2,1.2-0.4,1.8-0.7C33.9,36.1,34.7,35.2,35.2,34.1z"/>
	<path class="st1" d="M51.1,29l-4.7-0.7l4.1-2.5c-1-3.5-2.8-6.6-5.4-9.1c-4.2-4.1-9.3-6.2-15.1-6.2c-0.9,0-1.9,0.1-2.8,0.2l-0.7,4.7
		L24,11.3c-3.5,1-6.6,2.8-9.1,5.4c-4.1,4.2-6.2,9.3-6.2,15.1c0,0.9,0.1,1.9,0.2,2.8l4.7,0.7l-4.1,2.5c1,3.5,2.8,6.6,5.4,9.1
		c4.2,4.1,9.3,6.2,15.1,6.2c0.9,0,1.9-0.1,2.8-0.2l0.7-4.7l2.5,4.1c3.5-1,6.6-2.8,9.1-5.4c4.1-4.2,6.2-9.3,6.2-15.1
		C51.3,30.9,51.2,30,51.1,29z"/>
	<path class="st2" d="M38.8,35.1l-4.1-3.3c0-0.1,0-0.1,0-0.2l7.2-5.3l-8.7,2.1c0,0-0.1-0.1-0.1-0.1l0.1-5.3l-3.3,4.1
		c-0.1,0-0.1,0-0.2,0L24.5,20l2.1,8.7c0,0-0.1,0.1-0.1,0.1l-5.3-0.1l4.1,3.3c0,0.1,0,0.1,0,0.2l-7.2,5.3l8.7-2.1
		c0,0,0.1,0.1,0.1,0.1l-0.1,5.3l3.3-4.1c0.1,0,0.1,0,0.2,0l5.3,7.2l-2.1-8.7c0,0,0.1-0.1,0.1-0.1L38.8,35.1z M30,35.6
		c-2.1,0-3.8-1.7-3.8-3.8s1.7-3.8,3.8-3.8s3.8,1.7,3.8,3.8S32.1,35.6,30,35.6z"/>
	<polygon class="st3" points="31.9,33.8 44.6,17.3 28.1,30 	"/>
	<polygon class="st4" points="28.1,30 15.4,46.5 31.9,33.8 	"/>
</g>
</svg>
