<?xml version="1.0" ?><svg height="60" id="svg5032" version="1.1" viewBox="0 0 60.000001 60.000001" width="60" xmlns="http://www.w3.org/2000/svg" xmlns:cc="http://creativecommons.org/ns#" xmlns:dc="http://purl.org/dc/elements/1.1/" xmlns:inkscape="http://www.inkscape.org/namespaces/inkscape" xmlns:rdf="http://www.w3.org/1999/02/22-rdf-syntax-ns#" xmlns:sodipodi="http://sodipodi.sourceforge.net/DTD/sodipodi-0.dtd" xmlns:svg="http://www.w3.org/2000/svg"><defs id="defs5034"/><g id="layer1" transform="translate(0,-992.36216)"><circle cx="30" cy="1022.3622" id="path4784-9-6" r="30" style="opacity:1;fill:#ffad2a;fill-opacity:1;stroke:none;stroke-width:0.03;stroke-miterlimit:4;stroke-dasharray:none;stroke-opacity:1"/><g id="g4640" transform="matrix(0.66666667,0,0,0.66666667,13.335625,1005.6958)"><path d="m 26.856,6.032 c -6.744,0 -12.661,3.547 -16.025,8.864 l -7.479,0 c -1.025,0 -1.855,0.831 -1.855,1.856 l 0,16.495 c 0,1.025 0.831,1.856 1.855,1.856 l 7.479,0 c 3.365,5.317 9.282,8.864 16.025,8.864 1.367,0 2.474,-1.108 2.474,-2.474 l 0,-32.987 C 29.331,7.14 28.223,6.032 26.856,6.032 Z M 24.382,38.801 C 17.828,37.629 12.836,31.886 12.836,25 c 0,-6.886 4.991,-12.629 11.546,-13.801 l 0,27.602 z" id="path4642" style="fill:#aa0000;fill-opacity:1"/><path d="m 42.939,11.556 c -0.725,-0.725 -1.9,-0.724 -2.625,0 -0.725,0.724 -0.725,1.899 -10e-4,2.625 5.963,5.967 5.963,15.675 0,21.64 -0.724,0.725 -0.724,1.899 10e-4,2.625 0.362,0.362 0.837,0.543 1.312,0.543 0.475,0 0.95,-0.181 1.313,-0.543 7.409,-7.414 7.41,-19.476 0,-26.89 z" id="path4644" style="fill:#ff0000"/><path d="m 38.387,16.105 c -0.725,-0.725 -1.899,-0.725 -2.624,0 -0.725,0.724 -0.725,1.899 0,2.624 3.457,3.457 3.457,9.083 0,12.541 -0.724,0.725 -0.724,1.899 0,2.625 0.362,0.362 0.837,0.543 1.312,0.543 0.475,0 0.95,-0.181 1.313,-0.543 4.903,-4.906 4.903,-12.887 -10e-4,-17.79 z" id="path4646" style="fill:#ff0000"/><path d="m 33.838,20.655 c -0.726,-0.725 -1.9,-0.723 -2.625,10e-4 -0.724,0.726 -0.723,1.9 0.002,2.625 0.459,0.458 0.711,1.068 0.711,1.718 0,0.65 -0.253,1.262 -0.712,1.722 -0.725,0.725 -0.725,1.899 0.001,2.624 0.362,0.362 0.836,0.543 1.312,0.543 0.475,0 0.95,-0.181 1.313,-0.544 1.16,-1.16 1.799,-2.704 1.799,-4.345 -0.001,-1.642 -0.64,-3.185 -1.801,-4.344 z" id="path4648" style="fill:#ff0000"/></g></g></svg>