<?xml version="1.0" encoding="utf-8"?>
<!-- Generator: Adobe Illustrator 20.1.0, SVG Export Plug-In . SVG Version: 6.00 Build 0)  -->
<svg version="1.1" id="Layer_1" xmlns="http://www.w3.org/2000/svg" xmlns:xlink="http://www.w3.org/1999/xlink" x="0px" y="0px"
	 viewBox="0 0 60 60" style="enable-background:new 0 0 60 60;" xml:space="preserve">
<style type="text/css">
	.st0{fill:#139BD0;}
	.st1{fill:#FFFFFF;}
</style>
<g>
	<circle class="st0" cx="30" cy="30" r="30"/>
	<path class="st1" d="M31,37.2c-1.2,1.1-2.3,2.2-3.4,3.3c-0.4,0.4-0.8,0.6-1.4,0.6c-0.4,0-0.6-0.2-0.7-0.6c-0.9-2.7-1.8-5.4-2.6-8.1
		c-0.1-0.3-0.2-0.4-0.5-0.5c-2-0.6-4.1-1.3-6.1-1.9c-0.3-0.1-0.6-0.2-0.9-0.4c-0.4-0.3-0.5-0.7-0.1-1.1c0.3-0.3,0.8-0.6,1.2-0.7
		c2.5-1,5-2,7.5-2.9c6.4-2.5,12.8-4.9,19.1-7.4c1.2-0.5,2.1,0.2,2,1.5c-0.1,0.8-0.3,1.7-0.5,2.5c-1.4,6.5-2.8,13.1-4.2,19.6
		c-0.3,1.6-1.4,2-2.7,1c-2.1-1.6-4.3-3.2-6.4-4.7C31.2,37.3,31.1,37.3,31,37.2z M26.2,39.2C26.2,39.1,26.2,39.1,26.2,39.2
		c0.1-0.1,0.1-0.1,0.1-0.2c0.1-1.5,0.3-3,0.4-4.4c0-0.3,0.1-0.6,0.4-0.8c2-1.8,3.9-3.5,5.9-5.3c2.2-2,4.3-3.9,6.5-5.9
		c0.1-0.1,0.2-0.3,0.3-0.5c-0.2,0-0.4-0.1-0.6-0.1c-0.3,0.1-0.5,0.2-0.7,0.4c-4.8,3-9.6,6-14.4,9.1c-0.3,0.2-0.3,0.3-0.2,0.6
		c0.4,1,0.7,2,1,3.1C25.3,36.4,25.7,37.8,26.2,39.2z"/>
</g>
</svg>
