<?xml version="1.0" encoding="utf-8"?>
<!-- Generator: Adobe Illustrator 20.1.0, SVG Export Plug-In . SVG Version: 6.00 Build 0)  -->
<svg version="1.1" id="Layer_1" xmlns="http://www.w3.org/2000/svg" xmlns:xlink="http://www.w3.org/1999/xlink" x="0px" y="0px"
	 viewBox="0 0 60 60" style="enable-background:new 0 0 60 60;" xml:space="preserve">
<style type="text/css">
	.st0{fill:#1CB7EB;}
	.st1{fill:#FFFFFF;}
</style>
<circle class="st0" cx="30" cy="30" r="30"/>
<g>
	<g>
		<path class="st1" d="M46.2,19.1c-1.1,0.6-2.5,1-3.8,1.1c1.4-0.9,2.4-2.3,2.9-3.9c-1.3,0.8-2.6,1.4-4.3,1.7
			c-1.3-1.4-2.9-2.3-4.8-2.3c-3.6,0-6.6,3.1-6.6,7.1c0,0.5,0,1.1,0.1,1.6c-5.5-0.3-10.4-3.1-13.6-7.4c-0.6,1-0.9,2.3-0.9,3.6
			c0,2.5,1.1,4.6,2.9,5.9c-1.1,0-2.1-0.4-3-0.9V26c0,3.4,2.3,6.2,5.3,7c-0.5,0.1-1.1,0.3-1.8,0.3c-0.4,0-0.9,0-1.3-0.1
			c0.9,2.9,3.3,4.9,6.1,4.9c-2.3,1.9-5.1,3-8.1,3c-0.5,0-1,0-1.6-0.1c2.9,2,6.4,3.3,10.1,3.3c12.1,0,18.8-10.8,18.8-20.1
			c0-0.3,0-0.6,0-0.9C44.2,21.9,45.3,20.6,46.2,19.1z"/>
	</g>
</g>
</svg>
