<?xml version="1.0" encoding="utf-8"?>
<!-- Generator: Adobe Illustrator 20.1.0, SVG Export Plug-In . SVG Version: 6.00 Build 0)  -->
<svg version="1.1" id="Layer_1" xmlns="http://www.w3.org/2000/svg" xmlns:xlink="http://www.w3.org/1999/xlink" x="0px" y="0px"
	 viewBox="0 0 60 60" style="enable-background:new 0 0 60 60;" xml:space="preserve">
<style type="text/css">
	.st0{fill:#7D51A0;}
</style>
<path class="st0" d="M30,0C13.4,0,0,13.4,0,30s13.4,30,30,30s30-13.4,30-30S46.6,0,30,0z M29.6,12.9c0.1-0.4,0.5-0.6,0.5-0.6
	c0.2-0.1,0.3-0.1,0.6-0.1c0,0,0.3,0,0.5,0c7.9,0.2,14.8,5.8,15.8,14.4c0.1,0.6,0.2,1.2,0.2,2.6c0,0.3,0,0.8-0.3,1.1
	c-0.2,0.1-0.3,0.2-0.5,0.2c-0.2,0-0.4-0.1-0.6-0.4c-0.3-0.3-0.3-0.7-0.3-0.8c-0.1-1.5-0.3-3.1-0.7-4.6c-1.3-5.6-6.4-10-12.1-10.7
	c-0.7-0.1-1.3-0.1-2-0.2c-0.5,0-0.9-0.1-1.1-0.4C29.6,13.2,29.6,12.9,29.6,12.9z M32.8,18.1c0,0-0.3,0-0.7-0.1
	c-0.3-0.1-0.6-0.2-0.8-0.4C31.1,17.5,31,17.2,31,17c0-0.1,0.1-0.4,0.3-0.5c0.3-0.2,0.6-0.2,0.8-0.2c4.7,0.2,7.4,2.9,7.4,2.9
	c0.2,0.2,1.2,1.2,2.1,2.9c1.1,2,1.4,3.8,1.5,4.9c0,0.3,0,0.6-0.2,1c-0.1,0.2-0.2,0.3-0.3,0.5c-0.2,0.2-0.5,0.2-0.6,0.2
	c-0.1,0-0.3-0.1-0.4-0.3c-0.2-0.2-0.3-0.4-0.3-0.5c-0.2-2.1-0.6-4.2-1.9-6.1C37.8,19.6,35.5,18.6,32.8,18.1z M38.9,26.3
	c0,0.6-0.3,0.9-0.4,0.9c-0.2,0.2-0.4,0.2-0.5,0.2c-0.2,0-0.4-0.1-0.5-0.3c-0.3-0.3-0.3-0.6-0.3-0.7c-0.1-0.5-0.4-2.3-1.3-3.1
	c-0.6-0.5-1.3-0.8-2.4-0.9c-0.4-0.1-0.9-0.2-1-0.5c-0.1-0.2,0-0.5,0-0.6c0.2-0.6,0.9-0.8,1-0.8c0.5,0.1,3.5,0.5,4.9,2.8
	C38.9,24.7,38.9,26,38.9,26.3z M47.2,43c-1.1,1.4-2.2,2.8-3.6,4c-1.2,1-2.7,1.1-4.2,0.5c-12.4-5.1-21.2-13.6-26.4-26
	c-0.1-0.3-0.2-0.6-0.3-0.9c-1-2.8-0.7-3.9,1.6-5.7c0.7-0.6,1.5-1.2,2.4-1.7c1.4-0.9,2.9-0.9,3.9,0.4c1.7,2.1,3.3,4.2,4.7,6.5
	c1,1.7,0.7,2.7-0.9,3.9c-0.4,0.3-0.7,0.6-1.1,0.9c-0.9,0.7-1.3,1.6-0.9,2.8c1.7,5.1,5.3,8.4,10.3,10.1c0.6,0.2,1.5-0.2,2.1-0.6
	c0.5-0.3,0.8-0.9,1.1-1.3c1-1.2,2.6-1.8,3.9-0.9c2.4,1.5,4.6,3.2,6.9,4.9c0.5,0.4,0.6,1.2,0.9,1.8C47.5,42.1,47.5,42.7,47.2,43z"/>
</svg>
