<?xml version="1.0" encoding="utf-8"?>
<!-- Generator: Adobe Illustrator 20.1.0, SVG Export Plug-In . SVG Version: 6.00 Build 0)  -->
<svg version="1.1" id="Layer_1" xmlns="http://www.w3.org/2000/svg" xmlns:xlink="http://www.w3.org/1999/xlink" x="0px" y="0px"
	 viewBox="0 0 60 60" style="enable-background:new 0 0 60 60;" xml:space="preserve">
<style type="text/css">
	.st0{fill:#4A74A5;}
	.st1{fill:#FFFFFF;}
</style>
<g>
	<circle class="st0" cx="30" cy="30" r="30"/>
	<path class="st1" d="M42.7,36.1c0,1.6-0.3,2.9-0.9,4.1c-0.6,1.2-1.4,2.2-2.4,2.9c-1.2,0.9-2.5,1.6-3.9,2s-3.2,0.6-5.4,0.6H17.3
		V14.2h11.2c2.3,0,4.1,0.1,5.3,0.3s2.3,0.6,3.4,1.1c1.1,0.6,2,1.4,2.5,2.4c0.6,1,0.8,2.2,0.8,3.5c0,1.5-0.4,2.9-1.2,4.1
		s-1.8,2.1-3.2,2.7v0.2c2,0.4,3.5,1.2,4.7,2.5C42.1,32.3,42.7,34,42.7,36.1L42.7,36.1z M32.5,23.1c0-0.5-0.1-1-0.4-1.6
		c-0.3-0.5-0.7-0.9-1.2-1.2C30.3,20.2,29.7,20,29,20s-1.8,0-3.2,0h-0.6v6.7h1c1.4,0,2.3,0,2.9,0s1.1-0.2,1.7-0.5s1.1-0.7,1.3-1.2
		C32.3,24.4,32.4,23.8,32.5,23.1L32.5,23.1z M34.5,36c0-1-0.2-1.7-0.6-2.3c-0.4-0.6-1-1-1.8-1.2c-0.5-0.2-1.2-0.3-2-0.3s-2,0-3.4,0
		h-1.5V40h0.4c2.1,0,3.5,0,4.3,0s1.6-0.2,2.4-0.6c0.7-0.3,1.2-0.8,1.6-1.4C34.3,37.5,34.5,36.8,34.5,36z"/>
</g>
</svg>
