<?xml version="1.0" encoding="utf-8"?>
<!-- Generator: Adobe Illustrator 20.1.0, SVG Export Plug-In . SVG Version: 6.00 Build 0)  -->
<svg version="1.1" id="Layer_1" xmlns="http://www.w3.org/2000/svg" xmlns:xlink="http://www.w3.org/1999/xlink" x="0px" y="0px"
	 viewBox="0 0 60 60" style="enable-background:new 0 0 60 60;" xml:space="preserve">
<style type="text/css">
	.st0{fill:#ED1F24;}
	.st1{fill:#FFFFFF;}
</style>
<g>
	<circle class="st0" cx="30" cy="30" r="30"/>
	<path id="path40" class="st1" d="M38.1,12h-5.4c-5.4,0-9.9,4.1-9.9,12c0,4.7,2.2,8.2,6.1,10l-7.3,13.2c-0.2,0.4,0,0.8,0.4,0.8h3.4
		c0.3,0,0.5-0.1,0.6-0.3l6.6-13h2.4v13c0,0.1,0.1,0.3,0.3,0.3h3c0.3,0,0.4-0.1,0.4-0.4V12.5C38.6,12.2,38.4,12,38.1,12z M34.9,31.6
		h-2c-3.2,0-6.2-2.3-6.2-8.1c0-6,2.9-8.4,5.8-8.4h2.4L34.9,31.6L34.9,31.6z"/>
</g>
</svg>
