<?xml version="1.0" encoding="iso-8859-1"?>
<!-- Generator: Adobe Illustrator 19.0.0, SVG Export Plug-In . SVG Version: 6.00 Build 0)  -->
<svg version="1.1" id="Capa_1" xmlns="http://www.w3.org/2000/svg" xmlns:xlink="http://www.w3.org/1999/xlink" x="0px" y="0px"
	 viewBox="0 0 512 512" style="enable-background:new 0 0 512 512;" xml:space="preserve">
<g>
	<g>
		<path d="M256,0C113.767,0,0,113.715,0,256c0,142.233,113.715,256,256,256c142.233,0,256-113.715,256-256
			C512,113.767,398.285,0,256,0z M256,482C130.348,482,30,381.703,30,256C30,130.348,130.297,30,256,30
			c125.652,0,226,100.297,226,226C482,381.652,381.703,482,256,482z"/>
	</g>
</g>
<g>
	<g>
		<path d="M369.995,97.053c-78.12-55.597-183.601-48.221-252.882,21.061c-68.008,68.007-75.359,174.585-21.061,250.882
			c5.359,7.529,16.208,8.478,22.787,1.951l253.023-251.024C378.466,113.371,377.565,102.441,369.995,97.053z M110.934,336.531
			c-35.89-63.869-25.526-144.284,27.393-197.204c54.287-54.287,133.94-64.579,199.111-27.51L110.934,336.531z"/>
	</g>
</g>
<g>
	<g>
		<path d="M415.947,143.004c-5.364-7.538-16.22-8.465-22.786-1.951L140.137,392.077c-6.604,6.551-5.704,17.482,1.867,22.869
			c78.564,55.913,183.991,47.832,252.882-21.061C462.894,325.878,470.244,219.299,415.947,143.004z M373.673,372.673
			c-54.298,54.297-133.95,64.574-199.111,27.51l226.504-224.714C436.956,239.338,426.592,319.753,373.673,372.673z"/>
	</g>
</g>
<g>
</g>
<g>
</g>
<g>
</g>
<g>
</g>
<g>
</g>
<g>
</g>
<g>
</g>
<g>
</g>
<g>
</g>
<g>
</g>
<g>
</g>
<g>
</g>
<g>
</g>
<g>
</g>
<g>
</g>
</svg>
